<svg width="178" height="48" viewBox="0 0 178 48" fill="none" xmlns="http://www.w3.org/2000/svg">
<path d="M0 19.3437H15.6044L32.6351 48H17.0245L0 19.3437Z" fill="white" fill-opacity="0.92"/>
<path d="M24.7258 34.6539V0C34.2926 0 42.0528 7.76017 42.0528 17.327C42.0528 26.8938 34.2926 34.6539 24.7258 34.6539Z" fill="white" fill-opacity="0.92"/>
<path d="M50 8.66889H60.5975C62.7948 8.66889 64.728 9.08611 66.3969 9.92056C68.0936 10.755 69.4009 11.9371 70.3187 13.4669C71.2366 14.9968 71.6956 16.763 71.6956 18.7657C71.6956 20.7962 71.2366 22.5763 70.3187 24.1061C69.4009 25.6359 68.0936 26.8181 66.3969 27.6525C64.728 28.487 62.7948 28.9042 60.5975 28.9042H52.6702V24.3982H60.3054C62.3359 24.3982 63.8935 23.9253 64.9783 22.9796C66.0631 22.0339 66.6055 20.6432 66.6055 18.8074C66.6055 16.9994 66.0631 15.6226 64.9783 14.6769C63.8935 13.7312 62.3359 13.2583 60.3054 13.2583H52.6702L54.965 10.8802V25.9419V27.1101V37.8745H50V8.66889Z" fill="white" fill-opacity="0.92"/>
<path d="M74.6344 16.0955H78.3477L79.2656 20.8518L78.0556 20.9352C78.8622 19.2107 79.8636 17.973 81.0596 17.222C82.2557 16.471 83.8828 16.0955 85.9411 16.0955H88.1107V20.4763H85.816C83.8411 20.4763 82.2696 21.0604 81.1013 22.2286C79.9609 23.3969 79.3907 25.2883 79.3907 27.9029V37.8745H74.6344V16.0955Z" fill="white" fill-opacity="0.92"/>
<path d="M99.6782 38.4169C97.3974 38.4169 95.353 37.9301 93.545 36.9566C91.7649 35.9831 90.3741 34.634 89.3728 32.9095C88.3714 31.185 87.8708 29.2102 87.8708 26.985C87.8708 24.7598 88.3714 22.7849 89.3728 21.0604C90.3741 19.3359 91.7649 17.9869 93.545 17.0133C95.353 16.0398 97.3974 15.5531 99.6782 15.5531C101.931 15.5531 103.948 16.0398 105.728 17.0133C107.536 17.9869 108.941 19.3359 109.942 21.0604C110.943 22.7849 111.444 24.7598 111.444 26.985C111.444 29.2102 110.943 31.185 109.942 32.9095C108.941 34.634 107.536 35.9831 105.728 36.9566C103.948 37.9301 101.931 38.4169 99.6782 38.4169ZM99.6782 34.0778C101.041 34.0778 102.251 33.7857 103.308 33.2016C104.393 32.5897 105.227 31.7413 105.811 30.6565C106.423 29.5717 106.729 28.3479 106.729 26.985C106.729 25.622 106.423 24.3982 105.811 23.3134C105.227 22.2286 104.393 21.3942 103.308 20.8101C102.251 20.1981 101.041 19.8922 99.6782 19.8922C98.2874 19.8922 97.0497 20.1981 95.9649 20.8101C94.9079 21.3942 94.0735 22.2286 93.4616 23.3134C92.8775 24.3982 92.5854 25.622 92.5854 26.985C92.5854 28.3479 92.8775 29.5717 93.4616 30.6565C94.0735 31.7413 94.9079 32.5897 95.9649 33.2016C97.0497 33.7857 98.2874 34.0778 99.6782 34.0778Z" fill="white" fill-opacity="0.92"/>
<path d="M124.262 38.4169C122.176 38.4169 120.285 37.9301 118.588 36.9566C116.891 35.9553 115.57 34.5923 114.624 32.8678C113.679 31.1433 113.206 29.1823 113.206 26.985C113.206 24.7876 113.679 22.8266 114.624 21.1021C115.57 19.3776 116.891 18.0286 118.588 17.0551C120.285 16.0537 122.176 15.5531 124.262 15.5531C126.376 15.5531 128.267 16.0537 129.936 17.0551C131.633 18.0286 132.954 19.3776 133.9 21.1021C134.846 22.8266 135.318 24.7876 135.318 26.985C135.318 29.1823 134.846 31.1572 133.9 32.9095C132.954 34.634 131.633 35.9831 129.936 36.9566C128.267 37.9301 126.376 38.4169 124.262 38.4169ZM125.013 34.0778C126.376 34.0778 127.586 33.7857 128.643 33.2016C129.728 32.5897 130.562 31.7413 131.146 30.6565C131.758 29.5717 132.064 28.3479 132.064 26.985C132.064 25.622 131.758 24.4121 131.146 23.3551C130.562 22.2703 129.728 21.422 128.643 20.8101C127.586 20.1981 126.376 19.8922 125.013 19.8922C123.622 19.8922 122.385 20.1981 121.3 20.8101C120.243 21.422 119.408 22.2703 118.796 23.3551C118.212 24.4121 117.92 25.622 117.92 26.985C117.92 28.3479 118.212 29.5717 118.796 30.6565C119.408 31.7413 120.243 32.5897 121.3 33.2016C122.385 33.7857 123.622 34.0778 125.013 34.0778ZM132.148 34.1612L133.608 26.8181L131.897 22.1035V7H136.654V37.8745H132.899L132.148 34.1612Z" fill="white" fill-opacity="0.92"/>
<path d="M141.634 7H146.391V37.8745H141.634V7ZM150.062 27.736L154.986 26.8181L161.828 37.8745H156.196L150.062 27.736ZM145.014 24.6485H148.602C149.659 24.6485 150.535 24.5373 151.231 24.3147C151.926 24.0922 152.496 23.7028 152.941 23.1465C153.414 22.5902 153.831 21.7975 154.193 20.7683L155.737 16.0955H160.868L158.574 22.479C157.99 24.0644 157.266 25.3439 156.404 26.3174C155.57 27.2631 154.541 27.9585 153.317 28.4035C152.093 28.8207 150.591 29.0294 148.811 29.0294H145.014V24.6485Z" fill="white" fill-opacity="0.92"/>
<path d="M174.495 37.8745C171.909 37.8745 169.906 37.1791 168.487 35.7884C167.097 34.3698 166.401 32.381 166.401 29.8221V19.0577L167.486 20.226H162.02V16.0955H163.94C164.718 16.0955 165.316 16.0259 165.734 15.8868C166.151 15.72 166.457 15.4557 166.652 15.0941C166.846 14.7047 166.999 14.1484 167.111 13.4252L167.486 10.5881H171.158V17.222L169.906 16.0955H177.708V20.226H170.115L171.158 19.0995V29.3631C171.158 30.7817 171.477 31.8248 172.117 32.4923C172.757 33.1599 173.73 33.4936 175.038 33.4936H178V37.8745H174.495Z" fill="white" fill-opacity="0.92"/>
</svg>
